<svg width="199" height="51" viewBox="0 0 199 51" fill="none" xmlns="http://www.w3.org/2000/svg">
<path d="M35.9838 31.8149L30.8877 30.5047L25.7905 31.8117C25.57 31.8684 25.3378 31.861 25.1213 31.7905C24.9049 31.7199 24.713 31.5891 24.5683 31.4134C24.4236 31.2377 24.3321 31.0244 24.3046 30.7985C24.277 30.5726 24.3144 30.3435 24.4126 30.1382L30.8877 16.5668L37.3628 30.1382C37.4615 30.3438 37.4994 30.5732 37.472 30.7996C37.4446 31.0259 37.3531 31.2398 37.2083 31.4159C37.0634 31.592 36.8712 31.7232 36.6543 31.7939C36.4374 31.8645 36.2048 31.8718 35.9838 31.8149Z" fill="url(#paint0_linear_1_3782)"/>
<path d="M30.8436 16.553V30.4909L35.9409 31.7979C36.1614 31.8546 36.3935 31.8472 36.61 31.7767C36.8265 31.7061 37.0183 31.5753 37.163 31.3996C37.3077 31.2239 37.3992 31.0105 37.4268 30.7847C37.4544 30.5588 37.4169 30.3297 37.3188 30.1244L30.8436 16.553Z" fill="url(#paint1_linear_1_3782)" style="mix-blend-mode:multiply"/>
<path d="M0.0533282 25.4736L25.4386 0.053042C30.0599 5.13716 27.5762 10.186 25.7566 12.0749L12.3485 25.4736H0.0533282Z" fill="url(#paint2_linear_1_3782)"/>
<path d="M25.4383 51L0 25.5265L11.9242 13.5576C7.81168 19.0654 10.8113 24.1142 12.8251 25.9501C15.2277 28.3333 21.1668 34.2436 25.7033 38.8193C30.2398 43.395 27.4168 48.8463 25.4383 51Z" fill="url(#paint3_linear_1_3782)"/>
<path d="M61.2627 25.4206L35.8773 0C31.2561 5.08412 33.7398 10.1329 35.5594 12.0218L48.9675 25.4206H61.2627Z" fill="url(#paint4_linear_1_3782)"/>
<path d="M35.8772 50.9471L61.3155 25.4735L49.3913 13.5047C53.5038 19.0125 50.5042 24.0613 48.4903 25.8972C46.0878 28.2804 40.1487 34.1907 35.6122 38.7664C31.0757 43.3421 33.8987 48.7934 35.8772 50.9471Z" fill="url(#paint5_linear_1_3782)"/>
<path d="M78.5948 20.3184V22.44H69.7432V11.016H78.3825V13.1376H72.3726V15.6183H77.6803V17.6746H72.3726V20.3184H78.5948Z" fill="#3A9EFD"/>
<path d="M82.3331 11.016H84.9788V20.2858H90.7111V22.44H82.3331V11.016Z" fill="#3A9EFD"/>
<path d="M93.8225 11.016H96.4681V22.44H93.8225V11.016Z" fill="#3A9EFD"/>
<path d="M103.182 13.1703H99.5242V11.016H109.486V13.1703H105.828V22.44H103.182V13.1703Z" fill="#3A9EFD"/>
<path d="M121.395 20.3184V22.44H112.543V11.016H121.182V13.1376H115.172V15.6183H120.48V17.6746H115.172V20.3184H121.395Z" fill="#3A9EFD"/>
<path d="M135.147 22.6359C134.244 22.6359 133.367 22.5162 132.518 22.2768C131.68 22.0266 131.005 21.7056 130.493 21.3139L131.391 19.3229C131.881 19.6819 132.463 19.9703 133.139 20.1879C133.814 20.4055 134.489 20.5143 135.164 20.5143C135.915 20.5143 136.47 20.4055 136.829 20.1879C137.189 19.9594 137.368 19.6602 137.368 19.2903C137.368 19.0183 137.259 18.7952 137.042 18.6211C136.835 18.4362 136.563 18.2893 136.225 18.1805C135.899 18.0717 135.452 17.952 134.886 17.8215C134.015 17.6147 133.302 17.408 132.747 17.2013C132.191 16.9946 131.712 16.6627 131.309 16.2058C130.917 15.7488 130.721 15.1395 130.721 14.3779C130.721 13.7143 130.901 13.1159 131.26 12.5827C131.62 12.0387 132.159 11.609 132.877 11.2934C133.607 10.9779 134.494 10.8202 135.539 10.8202C136.269 10.8202 136.982 10.9072 137.679 11.0813C138.375 11.2554 138.985 11.5056 139.508 11.832L138.691 13.8394C137.635 13.241 136.579 12.9418 135.523 12.9418C134.783 12.9418 134.233 13.0615 133.873 13.3008C133.525 13.5402 133.351 13.8557 133.351 14.2474C133.351 14.6391 133.552 14.9328 133.955 15.1287C134.369 15.3136 134.995 15.4986 135.833 15.6835C136.704 15.8903 137.417 16.097 137.973 16.3037C138.528 16.5104 139.001 16.8368 139.393 17.2829C139.796 17.729 139.998 18.3328 139.998 19.0944C139.998 19.7472 139.813 20.3456 139.442 20.8896C139.083 21.4227 138.539 21.8471 137.809 22.1626C137.08 22.4781 136.192 22.6359 135.147 22.6359Z" fill="#3A9EFD"/>
<path d="M155.801 23.664C155.431 24.121 154.979 24.4691 154.446 24.7085C153.923 24.9479 153.346 25.0675 152.715 25.0675C151.866 25.0675 151.098 24.8826 150.412 24.5127C149.726 24.1536 148.942 23.5117 148.06 22.5869C147.026 22.4563 146.101 22.1245 145.284 21.5914C144.478 21.0583 143.847 20.3728 143.39 19.5351C142.943 18.6864 142.72 17.7507 142.72 16.728C142.72 15.6074 142.987 14.601 143.52 13.7088C144.065 12.8058 144.81 12.0986 145.758 11.5872C146.716 11.0758 147.788 10.8202 148.975 10.8202C150.162 10.8202 151.229 11.0758 152.176 11.5872C153.123 12.0986 153.869 12.8058 154.413 13.7088C154.958 14.601 155.23 15.6074 155.23 16.728C155.23 18.0554 154.854 19.2195 154.103 20.2205C153.363 21.2215 152.377 21.9178 151.147 22.3095C151.419 22.5923 151.681 22.7936 151.931 22.9133C152.192 23.0439 152.47 23.1091 152.764 23.1091C153.472 23.1091 154.092 22.8263 154.626 22.2605L155.801 23.664ZM145.398 16.728C145.398 17.4352 145.551 18.0663 145.856 18.6211C146.171 19.176 146.601 19.6112 147.146 19.9267C147.69 20.2314 148.3 20.3837 148.975 20.3837C149.65 20.3837 150.26 20.2314 150.804 19.9267C151.348 19.6112 151.773 19.176 152.078 18.6211C152.394 18.0663 152.552 17.4352 152.552 16.728C152.552 16.0208 152.394 15.3898 152.078 14.8349C151.773 14.28 151.348 13.8503 150.804 13.5456C150.26 13.2301 149.65 13.0723 148.975 13.0723C148.3 13.0723 147.69 13.2301 147.146 13.5456C146.601 13.8503 146.171 14.28 145.856 14.8349C145.551 15.3898 145.398 16.0208 145.398 16.728Z" fill="#3A9EFD"/>
<path d="M163.93 22.6359C162.297 22.6359 161.023 22.1843 160.109 21.2813C159.205 20.3783 158.753 19.089 158.753 17.4135V11.016H161.399V17.3155C161.399 19.361 162.248 20.3837 163.947 20.3837C164.774 20.3837 165.406 20.1389 165.841 19.6493C166.277 19.1488 166.494 18.3709 166.494 17.3155V11.016H169.108V17.4135C169.108 19.089 168.65 20.3783 167.736 21.2813C166.832 22.1843 165.564 22.6359 163.93 22.6359Z" fill="#3A9EFD"/>
<path d="M180.645 19.992H175.337L174.324 22.44H171.613L176.709 11.016H179.322L184.434 22.44H181.657L180.645 19.992ZM179.812 17.9847L177.999 13.6109L176.186 17.9847H179.812Z" fill="#3A9EFD"/>
<path d="M187.253 11.016H192.446C193.687 11.016 194.781 11.2554 195.729 11.7341C196.687 12.2019 197.427 12.8656 197.95 13.7251C198.483 14.5847 198.75 15.5856 198.75 16.728C198.75 17.8704 198.483 18.8714 197.95 19.7309C197.427 20.5904 196.687 21.2595 195.729 21.7383C194.781 22.2061 193.687 22.44 192.446 22.44H187.253V11.016ZM192.315 20.2695C193.459 20.2695 194.368 19.9539 195.043 19.3229C195.729 18.681 196.072 17.816 196.072 16.728C196.072 15.64 195.729 14.7805 195.043 14.1495C194.368 13.5075 193.459 13.1866 192.315 13.1866H189.898V20.2695H192.315Z" fill="#3A9EFD"/>
<path d="M84.0597 41.9628C86.8034 41.9628 88.1038 40.592 88.1038 38.9926C88.1038 35.3226 82.1734 36.7078 82.1734 34.5801C82.1734 33.8232 82.8022 33.2235 84.3455 33.2235C85.2172 33.2235 86.2032 33.4805 87.1035 34.0089L87.6894 32.5666C86.8177 31.9954 85.5602 31.6812 84.3598 31.6812C81.6161 31.6812 80.33 33.0521 80.33 34.6657C80.33 38.3786 86.2747 36.9648 86.2747 39.1211C86.2747 39.8637 85.6173 40.4206 84.0597 40.4206C82.8308 40.4206 81.559 39.9636 80.7587 39.321L80.1157 40.7633C80.9445 41.4773 82.5021 41.9628 84.0597 41.9628Z" fill="#06EFCD"/>
<path d="M97.4767 41.9628C100.578 41.9628 102.864 39.7923 102.864 36.822C102.864 33.8518 100.578 31.6812 97.4767 31.6812C94.3757 31.6812 92.0894 33.8661 92.0894 36.822C92.0894 39.778 94.3757 41.9628 97.4767 41.9628ZM97.4767 40.3349C95.4618 40.3349 93.9613 38.8641 93.9613 36.822C93.9613 34.78 95.4618 33.3091 97.4767 33.3091C99.4916 33.3091 100.992 34.78 100.992 36.822C100.992 38.8641 99.4916 40.3349 97.4767 40.3349Z" fill="#06EFCD"/>
<path d="M107.691 41.82H114.779V40.2492H109.549V31.824H107.691V41.82Z" fill="#06EFCD"/>
<path d="M123.265 41.9628C125.995 41.9628 127.638 40.3778 127.638 37.4646V31.824H125.809V37.3932C125.809 39.4496 124.894 40.3349 123.28 40.3349C121.665 40.3349 120.736 39.4496 120.736 37.3932V31.824H118.878V37.4646C118.878 40.3778 120.522 41.9628 123.265 41.9628Z" fill="#06EFCD"/>
<path d="M134.945 41.82H136.803V33.3948H140.118V31.824H131.63V33.3948H134.945V41.82Z" fill="#06EFCD"/>
<path d="M144.371 41.82H146.228V31.824H144.371V41.82Z" fill="#06EFCD"/>
<path d="M156.465 41.9628C159.566 41.9628 161.852 39.7923 161.852 36.822C161.852 33.8518 159.566 31.6812 156.465 31.6812C153.364 31.6812 151.077 33.8661 151.077 36.822C151.077 39.778 153.364 41.9628 156.465 41.9628ZM156.465 40.3349C154.45 40.3349 152.949 38.8641 152.949 36.822C152.949 34.78 154.45 33.3091 156.465 33.3091C158.48 33.3091 159.98 34.78 159.98 36.822C159.98 38.8641 158.48 40.3349 156.465 40.3349Z" fill="#06EFCD"/>
<path d="M173.724 31.824V38.5928L168.208 31.824H166.679V41.82H168.522V35.0513L174.038 41.82H175.567V31.824H173.724Z" fill="#06EFCD"/>
<path d="M184.207 41.9628C186.95 41.9628 188.251 40.592 188.251 38.9926C188.251 35.3226 182.32 36.7078 182.32 34.5801C182.32 33.8232 182.949 33.2235 184.493 33.2235C185.364 33.2235 186.35 33.4805 187.251 34.0089L187.836 32.5666C186.965 31.9954 185.707 31.6812 184.507 31.6812C181.763 31.6812 180.477 33.0521 180.477 34.6657C180.477 38.3786 186.422 36.9648 186.422 39.1211C186.422 39.8637 185.764 40.4206 184.207 40.4206C182.978 40.4206 181.706 39.9636 180.906 39.321L180.263 40.7633C181.092 41.4773 182.649 41.9628 184.207 41.9628Z" fill="#06EFCD"/>
<defs>
<linearGradient id="paint0_linear_1_3782" x1="99.3866" y1="44.6527" x2="99.4148" y2="1.97499" gradientUnits="userSpaceOnUse">
<stop stop-color="#3A9EFD"/>
<stop offset="1" stop-color="#06EFCD"/>
</linearGradient>
<linearGradient id="paint1_linear_1_3782" x1="-76.7997" y1="31.0416" x2="-55.7453" y2="-28.1869" gradientUnits="userSpaceOnUse">
<stop stop-color="#3A9EFD"/>
<stop offset="1" stop-color="#06EFCD"/>
</linearGradient>
<linearGradient id="paint2_linear_1_3782" x1="189.809" y1="5.63125" x2="174.686" y2="68.7956" gradientUnits="userSpaceOnUse">
<stop stop-color="#06EFCD"/>
<stop offset="1" stop-color="#3A9EFD"/>
</linearGradient>
<linearGradient id="paint3_linear_1_3782" x1="99.375" y1="0" x2="99.375" y2="51" gradientUnits="userSpaceOnUse">
<stop stop-color="#06EFCD"/>
<stop offset="1" stop-color="#3A9EFD"/>
</linearGradient>
<linearGradient id="paint4_linear_1_3782" x1="189.809" y1="5.63125" x2="174.686" y2="68.7956" gradientUnits="userSpaceOnUse">
<stop stop-color="#06EFCD"/>
<stop offset="1" stop-color="#3A9EFD"/>
</linearGradient>
<linearGradient id="paint5_linear_1_3782" x1="99.375" y1="0" x2="99.375" y2="51" gradientUnits="userSpaceOnUse">
<stop stop-color="#06EFCD"/>
<stop offset="1" stop-color="#3A9EFD"/>
</linearGradient>
</defs>
</svg>
