<svg width="40" height="28" viewBox="0 0 40 28" fill="none" xmlns="http://www.w3.org/2000/svg">
<g id="Vector">
<path d="M11.1111 0H6.66667C2.99052 0 0 2.69147 0 6V10C0 13.3085 2.99052 16 6.66667 16H11.1111C11.8246 16 12.4993 15.8721 13.1443 15.6843C12.2483 20.3948 7.70978 24 2.22222 24C0.993926 24 0 24.8945 0 26C0 27.1055 0.993926 28 2.22222 28C10.7987 28 17.7778 21.7188 17.7778 14V6C17.7778 2.69147 14.7873 0 11.1111 0ZM33.3333 0H28.8889C25.2127 0 22.2222 2.69147 22.2222 6V10C22.2222 13.3085 25.2127 16 28.8889 16H33.3333C34.0468 16 34.7215 15.8721 35.3665 15.6843C34.4705 20.3948 29.932 24 24.4444 24C23.2161 24 22.2222 24.8945 22.2222 26C22.2222 27.1055 23.2161 28 24.4444 28C33.0209 28 40 21.7188 40 14V6C40 2.69147 37.0095 0 33.3333 0Z" fill="#F0EFFF"/>
<path d="M13.5841 15.7679L13.7207 15.0501L13.0191 15.2544C12.4019 15.4342 11.7707 15.5523 11.1111 15.5523H6.66667C3.19225 15.5523 0.447727 13.0181 0.447727 10V6C0.447727 2.98195 3.19225 0.447727 6.66667 0.447727H11.1111C14.5855 0.447727 17.33 2.98195 17.33 6V14C17.33 21.4283 10.5969 27.5523 2.22222 27.5523C1.19566 27.5523 0.447727 26.815 0.447727 26C0.447727 25.185 1.19566 24.4477 2.22222 24.4477C7.89744 24.4477 12.6431 20.7155 13.5841 15.7679ZM35.8064 15.7679L35.9429 15.0501L35.2413 15.2544C34.6241 15.4342 33.9929 15.5523 33.3333 15.5523H28.8889C25.4145 15.5523 22.6699 13.0181 22.6699 10V6C22.6699 2.98195 25.4145 0.447727 28.8889 0.447727H33.3333C36.8077 0.447727 39.5523 2.98195 39.5523 6V14C39.5523 21.4283 32.8192 27.5523 24.4444 27.5523C23.4179 27.5523 22.6699 26.815 22.6699 26C22.6699 25.185 23.4179 24.4477 24.4444 24.4477C30.1197 24.4477 34.8653 20.7155 35.8064 15.7679Z" stroke="black" stroke-opacity="0.1" stroke-width="0.895455"/>
</g>
</svg>
