<svg width="48" height="40" viewBox="0 0 48 40" fill="none" xmlns="http://www.w3.org/2000/svg">
<g id="Group 7">
<path id="Vector" d="M28.1694 24.9531L24.18 23.9254L20.1897 24.9506C20.017 24.995 19.8353 24.9892 19.6658 24.9339C19.4964 24.8786 19.3462 24.776 19.2329 24.6381C19.1197 24.5003 19.048 24.333 19.0264 24.1559C19.0048 23.9787 19.0342 23.7991 19.111 23.638L24.18 12.9938L29.2489 23.638C29.3262 23.7992 29.3558 23.9792 29.3344 24.1567C29.313 24.3342 29.2413 24.502 29.1279 24.6401C29.0145 24.7783 28.8641 24.8811 28.6943 24.9365C28.5244 24.992 28.3424 24.9977 28.1694 24.9531Z" fill="url(#paint0_linear_1_3801)"/>
<path id="Vector_2" style="mix-blend-mode:multiply" d="M24.1455 12.9832V23.9149L28.1358 24.94C28.3084 24.9844 28.4902 24.9787 28.6596 24.9233C28.8291 24.868 28.9793 24.7654 29.0925 24.6276C29.2058 24.4897 29.2774 24.3224 29.299 24.1453C29.3206 23.9681 29.2913 23.7885 29.2145 23.6274L24.1455 12.9832Z" fill="url(#paint1_linear_1_3801)"/>
<path id="Vector 2" d="M0.0418701 19.9793L19.9144 0.0416374C23.5321 4.02917 21.5878 7.98902 20.1633 9.4705L9.66699 19.9793H0.0418701Z" fill="url(#paint2_linear_1_3801)"/>
<path id="Vector 1" d="M19.914 39.9999L0 20.0207L9.33471 10.6334C6.11527 14.9532 8.46347 18.9131 10.04 20.353C11.9208 22.2222 16.5701 26.8577 20.1215 30.4465C23.6728 34.0352 21.4629 38.3108 19.914 39.9999Z" fill="url(#paint3_linear_1_3801)"/>
<path id="Vector 2_2" d="M47.9586 19.9376L28.0861 -6.48499e-05C24.4684 3.98747 26.4127 7.94731 27.8371 9.42879L38.3335 19.9376H47.9586Z" fill="url(#paint4_linear_1_3801)"/>
<path id="Vector 1_2" d="M28.0855 39.9588L47.9995 19.9796L38.6648 10.5923C41.8842 14.9121 39.536 18.8719 37.9595 20.3119C36.0787 22.181 31.4294 26.8165 27.878 30.4053C24.3267 33.9941 26.5366 38.2696 28.0855 39.9588Z" fill="url(#paint5_linear_1_3801)"/>
</g>
<defs>
<linearGradient id="paint0_linear_1_3801" x1="24.181" y1="23.4907" x2="24.2109" y2="13.4581" gradientUnits="userSpaceOnUse">
<stop stop-color="#1076D7"/>
<stop offset="1" stop-color="#06EFCD"/>
</linearGradient>
<linearGradient id="paint1_linear_1_3801" x1="22.1515" y1="20.2788" x2="26.595" y2="18.8978" gradientUnits="userSpaceOnUse">
<stop stop-color="#1076D7"/>
<stop offset="1" stop-color="#06EFCD"/>
</linearGradient>
<linearGradient id="paint2_linear_1_3801" x1="20.9931" y1="2.24309" x2="8.11418" y2="17.4305" gradientUnits="userSpaceOnUse">
<stop stop-color="#06EFCD"/>
<stop offset="1" stop-color="#1076D7"/>
</linearGradient>
<linearGradient id="paint3_linear_1_3801" x1="11.0145" y1="10.6334" x2="11.0145" y2="39.9999" gradientUnits="userSpaceOnUse">
<stop stop-color="#06EFCD"/>
<stop offset="1" stop-color="#1076D7"/>
</linearGradient>
<linearGradient id="paint4_linear_1_3801" x1="27.0074" y1="2.20139" x2="39.8863" y2="17.3888" gradientUnits="userSpaceOnUse">
<stop stop-color="#06EFCD"/>
<stop offset="1" stop-color="#1076D7"/>
</linearGradient>
<linearGradient id="paint5_linear_1_3801" x1="36.9851" y1="10.5923" x2="36.9851" y2="39.9588" gradientUnits="userSpaceOnUse">
<stop stop-color="#06EFCD"/>
<stop offset="1" stop-color="#1076D7"/>
</linearGradient>
</defs>
</svg>
