<svg width="22" height="22" viewBox="0 0 22 22" fill="none" xmlns="http://www.w3.org/2000/svg">
<path d="M9.49651 15.762L16.7269 8.53152L15.2943 7.10977L9.49651 12.9076L6.62368 10.0348L5.21606 11.4565L9.49651 15.762ZM11.0017 21.3533C9.57723 21.3533 8.23551 21.0833 6.97656 20.5434C5.71763 20.0035 4.61783 19.2632 3.67718 18.3226C2.73655 17.3819 1.99628 16.2828 1.45636 15.0251C0.916443 13.7675 0.646484 12.4264 0.646484 11.0019C0.646484 9.5608 0.916443 8.21075 1.45636 6.9518C1.99628 5.69287 2.73582 4.597 3.67498 3.6642C4.61413 2.7314 5.71288 1.99293 6.97121 1.4488C8.22954 0.904666 9.57135 0.632599 10.9966 0.632599C12.4386 0.632599 13.7896 0.904299 15.0496 1.4477C16.3097 1.9911 17.4058 2.72857 18.3379 3.66012C19.27 4.59167 20.0079 5.68711 20.5516 6.94642C21.0953 8.20574 21.3672 9.55693 21.3672 11C21.3672 12.4258 21.0951 13.7681 20.551 15.0269C20.0068 16.2857 19.2684 17.3848 18.3356 18.3243C17.4028 19.2638 16.3075 20.0035 15.0499 20.5434C13.7923 21.0833 12.4429 21.3533 11.0017 21.3533ZM10.9998 19.3728C13.3287 19.3728 15.3065 18.5584 16.9329 16.9295C18.5594 15.3007 19.3726 13.3241 19.3726 11C19.3726 8.67102 18.5594 6.6933 16.9329 5.06685C15.3065 3.4404 13.3264 2.62717 10.9927 2.62717C8.67567 2.62717 6.70212 3.4404 5.07203 5.06685C3.44197 6.6933 2.62693 8.67337 2.62693 11.0071C2.62693 13.3241 3.44137 15.2976 5.07023 16.9277C6.6991 18.5578 8.67561 19.3728 10.9998 19.3728Z" fill="white"/>
</svg>
