<svg width="138" height="138" viewBox="0 0 138 138" fill="none" xmlns="http://www.w3.org/2000/svg">
<rect width="138" height="138" fill="#1E1E1E"/>
<g id=" &#216;&#167;&#217;&#132;&#216;&#168;&#216;&#177;&#216;&#167;&#217;&#133;&#216;&#172; -&#216;&#167;&#217;&#132;&#217;&#129;&#216;&#167;&#216;&#170;&#217;&#136;&#216;&#177;&#216;&#169; &#216;&#167;&#217;&#132;&#216;&#167;&#217;&#132;&#217;&#131;&#216;&#170;&#216;&#177;&#217;&#136;&#217;&#134;&#217;&#138;&#216;&#169;" clip-path="url(#clip0_0_1)">
<rect width="1440" height="1725" transform="translate(-1006 -1142)" fill="white"/>
<rect id="Rectangle 3464197" x="-1006" y="-520" width="1440" height="815" fill="#F7FBFF"/>
<g id="Frame 1820548221">
<circle id="Ellipse 793" cx="134.5" cy="134.5" r="134.5" transform="matrix(-1 0 0 1 11 37)" fill="white" fill-opacity="0.12"/>
<circle id="Ellipse 794" cx="69" cy="69" r="69" transform="matrix(-1 0 0 1 39 11)" fill="#FFF9F9" fill-opacity="0.13"/>
</g>
<g id="Frame 1820548232">
<rect width="1184" height="671" transform="translate(-878 -448)" fill="white"/>
<g id="Frame 1820548231" clip-path="url(#clip1_0_1)">
<g id="Frame 1820548230" clip-path="url(#clip2_0_1)">
<path id="Rectangle 3841" d="M-83 -426C-83 -431.523 -78.5228 -436 -73 -436H284C289.523 -436 294 -431.523 294 -426V201C294 206.523 289.523 211 284 211H-73C-78.5228 211 -83 206.523 -83 201V-426Z" fill="#001411"/>
</g>
<g id="Frame 1820548229">
</g>
<g id="Frame 5">
<circle id="Ellipse 793_2" cx="134.5" cy="134.5" r="134.5" transform="matrix(-1 0 0 1 110 26)" fill="white" fill-opacity="0.12"/>
<circle id="Ellipse 794_2" cx="69" cy="69" r="69" transform="matrix(-1 0 0 1 138 0)" fill="#FFF9F9" fill-opacity="0.13"/>
</g>
</g>
</g>
</g>
<defs>
<clipPath id="clip0_0_1">
<rect width="1440" height="1725" fill="white" transform="translate(-1006 -1142)"/>
</clipPath>
<clipPath id="clip1_0_1">
<rect width="377" height="647" fill="white" transform="translate(-83 -436)"/>
</clipPath>
<clipPath id="clip2_0_1">
<rect width="377" height="647" fill="white" transform="translate(-83 -436)"/>
</clipPath>
</defs>
</svg>
