<svg width="30" height="31" viewBox="0 0 30 31" fill="none" xmlns="http://www.w3.org/2000/svg">
<g id="facebook" clip-path="url(#clip0_222_24550)">
<g id="Group">
<path id="Vector" d="M30 15.5C30 22.9871 24.5145 29.1928 17.3438 30.3178V19.8359H20.8389L21.5039 15.5H17.3438V12.6863C17.3438 11.4998 17.925 10.3438 19.7883 10.3438H21.6797V6.65234C21.6797 6.65234 19.9629 6.35938 18.3217 6.35938C14.8957 6.35938 12.6562 8.43594 12.6562 12.1953V15.5H8.84766V19.8359H12.6562V30.3178C5.48555 29.1928 0 22.9871 0 15.5C0 7.21602 6.71602 0.5 15 0.5C23.284 0.5 30 7.21602 30 15.5Z" fill="#1877F2"/>
<path id="Vector_2" d="M20.8389 19.8359L21.5039 15.5H17.3438V12.6863C17.3438 11.5 17.9249 10.3438 19.7882 10.3438H21.6797V6.65234C21.6797 6.65234 19.9631 6.35938 18.322 6.35938C14.8956 6.35938 12.6562 8.43594 12.6562 12.1953V15.5H8.84766V19.8359H12.6562V30.3177C13.42 30.4375 14.2027 30.5 15 30.5C15.7973 30.5 16.58 30.4375 17.3438 30.3177V19.8359H20.8389Z" fill="white"/>
</g>
</g>
<defs>
<clipPath id="clip0_222_24550">
<rect width="30" height="30" fill="white" transform="translate(0 0.5)"/>
</clipPath>
</defs>
</svg>
