<svg width="30" height="31" viewBox="0 0 30 31" fill="none" xmlns="http://www.w3.org/2000/svg">
<g id="Group">
<path id="Vector" d="M15 30.5C23.2843 30.5 30 23.7843 30 15.5C30 7.21573 23.2843 0.5 15 0.5C6.71573 0.5 0 7.21573 0 15.5C0 23.7843 6.71573 30.5 15 30.5Z" fill="#007AB9"/>
<g id="Group_2">
<path id="Vector_2" d="M23.9625 16.707V22.8912H20.377V17.1214C20.377 15.6727 19.8594 14.6834 18.5612 14.6834C17.5705 14.6834 16.982 15.3494 16.7221 15.9944C16.6277 16.2249 16.6034 16.5449 16.6034 16.8682V22.8909H13.0177C13.0177 22.8909 13.0658 13.1189 13.0177 12.1073H16.6036V13.6355C16.5964 13.6475 16.5863 13.6593 16.5798 13.6708H16.6036V13.6355C17.0801 12.9023 17.9299 11.8541 19.835 11.8541C22.1939 11.8541 23.9625 13.3954 23.9625 16.707ZM9.26674 6.9093C8.04023 6.9093 7.23779 7.71441 7.23779 8.7722C7.23779 9.80753 8.01696 10.6359 9.21968 10.6359H9.24294C10.4935 10.6359 11.2711 9.80753 11.2711 8.7722C11.2473 7.71441 10.4935 6.9093 9.26674 6.9093ZM7.4509 22.8912H11.0353V12.1073H7.4509V22.8912Z" fill="#F1F2F2"/>
</g>
</g>
</svg>
